<svg xmlns="http://www.w3.org/2000/svg" viewBox="0 0 512 512" role="img" aria-labelledby="title desc">
  <title id="title">Nindova Rasoi Pairs</title>
  <desc id="desc">A brass masala dabba inside an indigo and madder phulkari-inspired diamond.</desc>
  <rect width="512" height="512" rx="112" fill="#17172a"/>
  <path d="M256 54 458 256 256 458 54 256Z" fill="#202858" stroke="#e3a642" stroke-width="18"/>
  <path d="m256 82 42 42-42 42-42-42Zm132 132 42 42-42 42-42-42ZM256 346l42 42-42 42-42-42ZM82 256l42-42 42 42-42 42Z" fill="#8c3b39" stroke="#e3a642" stroke-width="8"/>
  <circle cx="256" cy="256" r="112" fill="#d4a956" stroke="#f3ead8" stroke-width="12"/>
  <circle cx="256" cy="256" r="28" fill="#8c3b39"/>
  <circle cx="256" cy="184" r="25" fill="#f3ead8" stroke="#8c3b39" stroke-width="8"/>
  <circle cx="324" cy="234" r="25" fill="#f3ead8" stroke="#8c3b39" stroke-width="8"/>
  <circle cx="298" cy="314" r="25" fill="#f3ead8" stroke="#8c3b39" stroke-width="8"/>
  <circle cx="214" cy="314" r="25" fill="#f3ead8" stroke="#8c3b39" stroke-width="8"/>
  <circle cx="188" cy="234" r="25" fill="#f3ead8" stroke="#8c3b39" stroke-width="8"/>
</svg>
