<svg xmlns="http://www.w3.org/2000/svg" viewBox="0 0 96 128"><rect x="2" y="2" width="92" height="124" rx="14" fill="#211A33" stroke="#E0A64B" stroke-opacity=".55" stroke-width="1.5"></rect><rect x="9" y="9" width="78" height="110" rx="9" fill="none" stroke="#EFE1C4" stroke-opacity=".12"></rect><g transform="translate(48 64) scale(.62) translate(-24 -24)" opacity=".9"><path d="M24 2 L31 9 L24 16 L17 9 Z" fill="#9A3A42"></path><path d="M24 32 L31 39 L24 46 L17 39 Z" fill="#9A3A42"></path><path d="M9 17 L16 24 L9 31 L2 24 Z" fill="#3A4A9E"></path><path d="M39 17 L46 24 L39 31 L32 24 Z" fill="#3A4A9E"></path><path d="M24 17 L31 24 L24 31 L17 24 Z" fill="#E0A64B"></path></g><g fill="#E0A64B" fill-opacity=".35"><path d="M16 13.5 L18.5 16 L16 18.5 L13.5 16 Z"></path><path d="M80 13.5 L82.5 16 L80 18.5 L77.5 16 Z"></path><path d="M16 109.5 L18.5 112 L16 114.5 L13.5 112 Z"></path><path d="M80 109.5 L82.5 112 L80 114.5 L77.5 112 Z"></path></g></svg>