
<svg xmlns="http://www.w3.org/2000/svg" viewBox="0 0 528 48" fill="#150D20">

  <g transform="translate(0 0)"><rect x="9" y="20" width="30" height="8" rx="4"></rect><rect x="2" y="22" width="8" height="4" rx="2"></rect><rect x="38" y="22" width="8" height="4" rx="2"></rect></g>

  <g transform="translate(58 0)"><path fill-rule="evenodd" d="M24 8a16 16 0 1 0 .01 0Z M24 13.5a10.5 10.5 0 1 0 .01 0Z M24 15a9 9 0 1 0 .01 0Z"></path></g>

  <g transform="translate(116 0)"><circle cx="20" cy="24" r="14"></circle><rect x="32" y="21" width="14" height="6" rx="3"></rect></g>

  <g transform="translate(174 0)"><g stroke="currentColor" stroke-width="3.5" stroke-linecap="round" fill="none"><path d="M24 9 L16 39"></path><path d="M24 9 L32 39"></path></g><circle cx="24" cy="8" r="4"></circle></g>

  <g transform="translate(232 0)"><rect x="8" y="17.5" width="32" height="3" rx="1.5"></rect><path d="M10 22 A14 10 0 0 0 38 22 Z"></path><rect x="20" y="31.5" width="8" height="4" rx="1.5"></rect></g>

  <g transform="translate(290 0)"><path d="M19 15 V11 Q19 8 22 8 H26 Q29 8 29 11 V15" stroke="currentColor" stroke-width="3" fill="none"></path><rect x="12" y="15" width="24" height="7" rx="3"></rect><rect x="12" y="24" width="24" height="7" rx="3"></rect><rect x="12" y="33" width="24" height="7" rx="3"></rect></g>

  <g transform="translate(348 0)"><path fill-rule="evenodd" d="M24 8a16 16 0 1 0 .01 0Z M33.5 20a4 4 0 1 0 .01 0Z M19.25 11.8a4 4 0 1 0 .01 0Z M28.75 11.8a4 4 0 1 0 .01 0Z M14.5 20a4 4 0 1 0 .01 0Z M24 20a4 4 0 1 0 .01 0Z M19.25 28.2a4 4 0 1 0 .01 0Z M28.75 28.2a4 4 0 1 0 .01 0Z"></path></g>

  <g transform="translate(406 0)"><path fill-rule="evenodd" d="M15 9 L33 9 L30.5 39 Q30.3 41 28.3 41 H19.7 Q17.7 41 17.5 39 Z M16.5 13.5 h15 v2.5 h-15 Z"></path></g>

  <g transform="translate(464 0)"><rect x="8" y="14" width="32" height="5" rx="2.5"></rect><rect x="20.5" y="7" width="7" height="6" rx="2"></rect><rect x="38" y="20" width="8" height="5" rx="2.5"></rect><path d="M10 21 H38 V32 Q38 40 30 40 H18 Q10 40 10 32 Z"></path></g>
</svg>